TITLE ""
FILE "2Q_t_0318-0334.mp3" MP3
  TRACK 01 AUDIO
    TITLE "2Q_t_0318-0334_01"
    INDEX 01 00:00:00
  TRACK 02 AUDIO
    TITLE "2Q_t_0318-0334_02"
    INDEX 01 00:00:10
  TRACK 03 AUDIO
    TITLE "2Q_t_0318-0334_03"
    INDEX 01 00:01:25
  TRACK 04 AUDIO
    TITLE "2Q_t_0318-0334_04"
    INDEX 01 00:01:70
  TRACK 05 AUDIO
    TITLE "2Q_t_0318-0334_05"
    INDEX 01 00:04:53
  TRACK 06 AUDIO
    TITLE "2Q_t_0318-0334_06"
    INDEX 01 00:05:21
  TRACK 07 AUDIO
    TITLE "2Q_t_0318-0334_07"
    INDEX 01 00:06:32
  TRACK 08 AUDIO
    TITLE "2Q_t_0318-0334_08"
    INDEX 01 00:07:08
  TRACK 09 AUDIO
    TITLE "2Q_t_0318-0334_09"
    INDEX 01 00:10:03
  TRACK 10 AUDIO
    TITLE "2Q_t_0318-0334_10"
    INDEX 01 00:10:46
  TRACK 11 AUDIO
    TITLE "2Q_t_0318-0334_11"
    INDEX 01 00:11:41
  TRACK 12 AUDIO
    TITLE "2Q_t_0318-0334_12"
    INDEX 01 00:12:12
  TRACK 13 AUDIO
    TITLE "2Q_t_0318-0334_13"
    INDEX 01 00:14:73
  TRACK 14 AUDIO
    TITLE "2Q_t_0318-0334_14"
    INDEX 01 00:15:43
  TRACK 15 AUDIO
    TITLE "2Q_t_0318-0334_15"
    INDEX 01 00:16:37
  TRACK 16 AUDIO
    TITLE "2Q_t_0318-0334_16"
    INDEX 01 00:17:09
  TRACK 17 AUDIO
    TITLE "2Q_t_0318-0334_17"
    INDEX 01 00:19:68
  TRACK 18 AUDIO
    TITLE "2Q_t_0318-0334_18"
    INDEX 01 00:20:37
  TRACK 19 AUDIO
    TITLE "2Q_t_0318-0334_19"
    INDEX 01 00:22:06
  TRACK 20 AUDIO
    TITLE "2Q_t_0318-0334_20"
    INDEX 01 00:22:51
  TRACK 21 AUDIO
    TITLE "2Q_t_0318-0334_21"
    INDEX 01 00:25:20
  TRACK 22 AUDIO
    TITLE "2Q_t_0318-0334_22"
    INDEX 01 00:25:65
  TRACK 23 AUDIO
    TITLE "2Q_t_0318-0334_23"
    INDEX 01 00:26:66
  TRACK 24 AUDIO
    TITLE "2Q_t_0318-0334_24"
    INDEX 01 00:27:42
  TRACK 25 AUDIO
    TITLE "2Q_t_0318-0334_25"
    INDEX 01 00:30:29
  TRACK 26 AUDIO
    TITLE "2Q_t_0318-0334_26"
    INDEX 01 00:30:74
  TRACK 27 AUDIO
    TITLE "2Q_t_0318-0334_27"
    INDEX 01 00:32:26
  TRACK 28 AUDIO
    TITLE "2Q_t_0318-0334_28"
    INDEX 01 00:32:73
  TRACK 29 AUDIO
    TITLE "2Q_t_0318-0334_29"
    INDEX 01 00:34:33
  TRACK 30 AUDIO
    TITLE "2Q_t_0318-0334_30"
    INDEX 01 00:35:03
  TRACK 31 AUDIO
    TITLE "2Q_t_0318-0334_31"
    INDEX 01 00:36:20
  TRACK 32 AUDIO
    TITLE "2Q_t_0318-0334_32"
    INDEX 01 00:36:67
  TRACK 33 AUDIO
    TITLE "2Q_t_0318-0334_33"
    INDEX 01 00:39:69
  TRACK 34 AUDIO
    TITLE "2Q_t_0318-0334_34"
    INDEX 01 00:40:37
  TRACK 35 AUDIO
    TITLE "2Q_t_0318-0334_35"
    INDEX 01 00:41:52
  TRACK 36 AUDIO
    TITLE "2Q_t_0318-0334_36"
    INDEX 01 00:42:34
  TRACK 37 AUDIO
    TITLE "2Q_t_0318-0334_37"
    INDEX 01 00:43:47
  TRACK 38 AUDIO
    TITLE "2Q_t_0318-0334_38"
    INDEX 01 00:44:15
  TRACK 39 AUDIO
    TITLE "2Q_t_0318-0334_39"
    INDEX 01 00:45:19
  TRACK 40 AUDIO
    TITLE "2Q_t_0318-0334_40"
    INDEX 01 00:45:66
  TRACK 41 AUDIO
    TITLE "2Q_t_0318-0334_41"
    INDEX 01 00:48:60
  TRACK 42 AUDIO
    TITLE "2Q_t_0318-0334_42"
    INDEX 01 00:49:30
  TRACK 43 AUDIO
    TITLE "2Q_t_0318-0334_43"
    INDEX 01 00:50:42
  TRACK 44 AUDIO
    TITLE "2Q_t_0318-0334_44"
    INDEX 01 00:51:16
  TRACK 45 AUDIO
    TITLE "2Q_t_0318-0334_45"
    INDEX 01 00:53:50
  TRACK 46 AUDIO
    TITLE "2Q_t_0318-0334_46"
    INDEX 01 00:54:20
  TRACK 47 AUDIO
    TITLE "2Q_t_0318-0334_47"
    INDEX 01 00:55:23
  TRACK 48 AUDIO
    TITLE "2Q_t_0318-0334_48"
    INDEX 01 00:55:70
  TRACK 49 AUDIO
    TITLE "2Q_t_0318-0334_49"
    INDEX 01 00:57:47
  TRACK 50 AUDIO
    TITLE "2Q_t_0318-0334_50"
    INDEX 01 00:58:19
  TRACK 51 AUDIO
    TITLE "2Q_t_0318-0334_51"
    INDEX 01 00:59:39
  TRACK 52 AUDIO
    TITLE "2Q_t_0318-0334_52"
    INDEX 01 01:00:12
  TRACK 53 AUDIO
    TITLE "2Q_t_0318-0334_53"
    INDEX 01 01:02:68
  TRACK 54 AUDIO
    TITLE "2Q_t_0318-0334_54"
    INDEX 01 01:03:38
  TRACK 55 AUDIO
    TITLE "2Q_t_0318-0334_55"
    INDEX 01 01:04:69
  TRACK 56 AUDIO
    TITLE "2Q_t_0318-0334_56"
    INDEX 01 01:05:39
  TRACK 57 AUDIO
    TITLE "2Q_t_0318-0334_57"
    INDEX 01 01:09:00
  TRACK 58 AUDIO
    TITLE "2Q_t_0318-0334_58"
    INDEX 01 01:09:45
  TRACK 59 AUDIO
    TITLE "2Q_t_0318-0334_59"
    INDEX 01 01:10:42
  TRACK 60 AUDIO
    TITLE "2Q_t_0318-0334_60"
    INDEX 01 01:11:16
  TRACK 61 AUDIO
    TITLE "2Q_t_0318-0334_61"
    INDEX 01 01:13:66
  TRACK 62 AUDIO
    TITLE "2Q_t_0318-0334_62"
    INDEX 01 01:14:34
  TRACK 63 AUDIO
    TITLE "2Q_t_0318-0334_63"
    INDEX 01 01:15:41
  TRACK 64 AUDIO
    TITLE "2Q_t_0318-0334_64"
    INDEX 01 01:16:12
  TRACK 65 AUDIO
    TITLE "2Q_t_0318-0334_65"
    INDEX 01 01:19:16
  TRACK 66 AUDIO
    TITLE "2Q_t_0318-0334_66"
    INDEX 01 01:19:59
  TRACK 67 AUDIO
    TITLE "2Q_t_0318-0334_67"
    INDEX 01 01:20:66
  TRACK 68 AUDIO
    TITLE "2Q_t_0318-0334_68"
    INDEX 01 01:21:34
  TRACK 69 AUDIO
    TITLE "2Q_t_0318-0334_69"
    INDEX 01 01:22:42
  TRACK 70 AUDIO
    TITLE "2Q_t_0318-0334_70"
    INDEX 01 01:23:12
  TRACK 71 AUDIO
    TITLE "2Q_t_0318-0334_71"
    INDEX 01 01:25:32
